<svg width="93" height="65" viewBox="0 0 93 65" fill="none" xmlns="http://www.w3.org/2000/svg">
<path d="M35.7598 37.42V12.42L57.4298 7.70001V34.82H38.3598C37.671 34.8226 37.0112 35.0974 36.5242 35.5844C36.0372 36.0715 35.7624 36.7313 35.7598 37.42V37.42ZM35.7598 37.42C35.7624 38.1088 36.0372 38.7686 36.5242 39.2556C37.0112 39.7426 37.671 40.0174 38.3598 40.02H58.2398" stroke="#274456" stroke-miterlimit="10"/>
<path d="M55.1797 37.42C55.1823 38.1087 55.4571 38.7685 55.9441 39.2556C56.4311 39.7426 57.0909 40.0174 57.7797 40.02H58.2397" stroke="#274456" stroke-miterlimit="10"/>
<path d="M57.8305 34.82C57.1417 34.8226 56.4819 35.0974 55.9949 35.5844C55.5079 36.0715 55.2331 36.7313 55.2305 37.42V37.42" stroke="#274456" stroke-miterlimit="10"/>
<path d="M38.7695 11.73V23.25L41.4395 18.79L43.8795 21.73V10.74" stroke="#274456" stroke-linejoin="round"/>
<path d="M4.91699 62H2.97559V54.3984L1.08203 55.1299V53.5166L4.71191 52.0332H4.91699V62ZM13.5234 57.8848C13.5234 59.2611 13.2728 60.3138 12.7715 61.043C12.2747 61.7721 11.5638 62.1367 10.6387 62.1367C9.72266 62.1367 9.014 61.7835 8.5127 61.0771C8.01595 60.3662 7.75846 59.3499 7.74023 58.0283V56.1484C7.74023 54.7767 7.98861 53.7285 8.48535 53.0039C8.9821 52.2747 9.69531 51.9102 10.625 51.9102C11.5547 51.9102 12.2679 52.2702 12.7646 52.9902C13.2614 53.7103 13.5143 54.738 13.5234 56.0732V57.8848ZM11.582 55.8682C11.582 55.0843 11.5046 54.4964 11.3496 54.1045C11.1947 53.7126 10.9531 53.5166 10.625 53.5166C10.0098 53.5166 9.69076 54.2344 9.66797 55.6699V58.1514C9.66797 58.9535 9.74544 59.5505 9.90039 59.9424C10.0599 60.3343 10.306 60.5303 10.6387 60.5303C10.9531 60.5303 11.1855 60.348 11.3359 59.9834C11.4909 59.6143 11.5729 59.0514 11.582 58.2949V55.8682ZM20.6055 57.8848C20.6055 59.2611 20.3548 60.3138 19.8535 61.043C19.3568 61.7721 18.6458 62.1367 17.7207 62.1367C16.8047 62.1367 16.096 61.7835 15.5947 61.0771C15.098 60.3662 14.8405 59.3499 14.8223 58.0283V56.1484C14.8223 54.7767 15.0706 53.7285 15.5674 53.0039C16.0641 52.2747 16.7773 51.9102 17.707 51.9102C18.6367 51.9102 19.3499 52.2702 19.8467 52.9902C20.3434 53.7103 20.5964 54.738 20.6055 56.0732V57.8848ZM18.6641 55.8682C18.6641 55.0843 18.5866 54.4964 18.4316 54.1045C18.2767 53.7126 18.0352 53.5166 17.707 53.5166C17.0918 53.5166 16.7728 54.2344 16.75 55.6699V58.1514C16.75 58.9535 16.8275 59.5505 16.9824 59.9424C17.1419 60.3343 17.388 60.5303 17.7207 60.5303C18.0352 60.5303 18.2676 60.348 18.418 59.9834C18.5729 59.6143 18.6549 59.0514 18.6641 58.2949V55.8682ZM28.2959 58.3633H27.2979V62H25.2881V52.0469H28.4941C29.5013 52.0469 30.2783 52.3089 30.8252 52.833C31.3766 53.3525 31.6523 54.0931 31.6523 55.0547C31.6523 56.3763 31.1715 57.3014 30.21 57.8301L31.9531 61.9043V62H29.793L28.2959 58.3633ZM27.2979 56.6885H28.4395C28.8405 56.6885 29.1413 56.5563 29.3418 56.292C29.5423 56.0231 29.6426 55.6654 29.6426 55.2188C29.6426 54.2207 29.2529 53.7217 28.4736 53.7217H27.2979V56.6885ZM32.7119 58.0625C32.7119 56.9414 32.9762 56.0618 33.5049 55.4238C34.0335 54.7858 34.765 54.4668 35.6992 54.4668C36.6426 54.4668 37.3786 54.7858 37.9072 55.4238C38.4359 56.0618 38.7002 56.946 38.7002 58.0762V58.5479C38.7002 59.6735 38.4382 60.5531 37.9141 61.1865C37.39 61.82 36.6562 62.1367 35.7129 62.1367C34.765 62.1367 34.0267 61.82 33.498 61.1865C32.974 60.5485 32.7119 59.6644 32.7119 58.5342V58.0625ZM34.6533 58.5479C34.6533 59.8695 35.0065 60.5303 35.7129 60.5303C36.3646 60.5303 36.7155 59.9788 36.7656 58.876L36.7725 58.0625C36.7725 57.388 36.679 56.889 36.4922 56.5654C36.3053 56.2373 36.041 56.0732 35.6992 56.0732C35.3711 56.0732 35.1136 56.2373 34.9268 56.5654C34.7445 56.889 34.6533 57.388 34.6533 58.0625V58.5479ZM45.2969 58.7529L45.96 54.6035H47.8125L46.2812 62H44.6748L43.6289 57.7207L42.583 62H40.9697L39.4385 54.6035H41.2979L41.9541 58.7598L42.9385 54.6035H44.3125L45.2969 58.7529ZM56.2959 59.3887C56.2959 58.9831 56.1911 58.6777 55.9814 58.4727C55.7764 58.263 55.4004 58.0465 54.8535 57.8232C53.8555 57.445 53.1377 57.0029 52.7002 56.4971C52.2627 55.9867 52.0439 55.3851 52.0439 54.6924C52.0439 53.8538 52.3402 53.1816 52.9326 52.6758C53.5296 52.1654 54.2861 51.9102 55.2021 51.9102C55.8128 51.9102 56.3574 52.04 56.8359 52.2998C57.3145 52.555 57.6813 52.9173 57.9365 53.3867C58.1963 53.8561 58.3262 54.3893 58.3262 54.9863H56.3232C56.3232 54.5215 56.223 54.1683 56.0225 53.9268C55.8265 53.6807 55.5417 53.5576 55.168 53.5576C54.8171 53.5576 54.5436 53.6624 54.3477 53.8721C54.1517 54.0771 54.0537 54.3551 54.0537 54.7061C54.0537 54.9795 54.1631 55.2279 54.3818 55.4512C54.6006 55.6699 54.988 55.8978 55.5439 56.1348C56.5146 56.4857 57.2188 56.9163 57.6562 57.4268C58.0983 57.9372 58.3193 58.5866 58.3193 59.375C58.3193 60.2409 58.0436 60.9176 57.4922 61.4053C56.9408 61.8929 56.1911 62.1367 55.2432 62.1367C54.6006 62.1367 54.015 62.0046 53.4863 61.7402C52.9577 61.4759 52.543 61.0977 52.2422 60.6055C51.946 60.1133 51.7979 59.5322 51.7979 58.8623H53.8145C53.8145 59.4365 53.9261 59.8535 54.1494 60.1133C54.3727 60.373 54.7373 60.5029 55.2432 60.5029C55.945 60.5029 56.2959 60.1315 56.2959 59.3887ZM63.0703 62C63.0156 61.8861 62.9609 61.6947 62.9062 61.4258C62.5599 61.8997 62.0905 62.1367 61.498 62.1367C60.8783 62.1367 60.3633 61.9316 59.9531 61.5215C59.5475 61.1113 59.3447 60.5804 59.3447 59.9287C59.3447 59.154 59.5908 58.5547 60.083 58.1309C60.5798 57.707 61.293 57.4906 62.2227 57.4814H62.8105V56.8867C62.8105 56.554 62.7536 56.3193 62.6396 56.1826C62.5257 56.0459 62.3594 55.9775 62.1406 55.9775C61.6576 55.9775 61.416 56.2601 61.416 56.8252H59.4814C59.4814 56.1416 59.7367 55.5788 60.2471 55.1367C60.762 54.6901 61.4115 54.4668 62.1953 54.4668C63.0065 54.4668 63.6331 54.6787 64.0752 55.1025C64.5218 55.5218 64.7451 56.1234 64.7451 56.9072V60.3867C64.7542 61.0247 64.8454 61.5238 65.0186 61.8838V62H63.0703ZM61.9287 60.6191C62.1429 60.6191 62.3252 60.5758 62.4756 60.4893C62.626 60.4027 62.7376 60.3001 62.8105 60.1816V58.6436H62.3457C62.0176 58.6436 61.7578 58.7484 61.5664 58.958C61.3796 59.1676 61.2861 59.4479 61.2861 59.7988C61.2861 60.3457 61.5003 60.6191 61.9287 60.6191ZM67.9648 54.6035L68.0195 55.2871C68.4525 54.7402 69.0244 54.4668 69.7354 54.4668C70.4736 54.4668 70.9954 54.7995 71.3008 55.4648C71.7246 54.7995 72.3285 54.4668 73.1123 54.4668C74.4066 54.4668 75.0697 55.3623 75.1016 57.1533V62H73.167V57.2764C73.167 56.848 73.1077 56.5426 72.9893 56.3604C72.8708 56.1781 72.6702 56.0869 72.3877 56.0869C72.0277 56.0869 71.7588 56.3079 71.5811 56.75L71.5947 56.9824V62H69.6602V57.29C69.6602 56.8662 69.6032 56.5609 69.4893 56.374C69.3753 56.1826 69.1725 56.0869 68.8809 56.0869C68.5482 56.0869 68.2839 56.2669 68.0879 56.627V62H66.1533V54.6035H67.9648ZM82.2998 58.5342C82.2998 59.6963 82.0993 60.5872 81.6982 61.207C81.3018 61.8268 80.7093 62.1367 79.9209 62.1367C79.3193 62.1367 78.8363 61.8929 78.4717 61.4053V64.8438H76.5371V54.6035H78.3281L78.3965 55.2803C78.7656 54.738 79.2692 54.4668 79.9072 54.4668C80.6956 54.4668 81.2881 54.7539 81.6846 55.3281C82.0856 55.9023 82.2907 56.7819 82.2998 57.9668V58.5342ZM80.3721 58.0488C80.3721 57.3333 80.2923 56.8275 80.1328 56.5312C79.9779 56.235 79.7135 56.0869 79.3398 56.0869C78.9434 56.0869 78.654 56.2533 78.4717 56.5859V60.0518C78.6449 60.3708 78.9388 60.5303 79.3535 60.5303C79.7363 60.5303 80.0007 60.3685 80.1465 60.0449C80.2969 59.7214 80.3721 59.2178 80.3721 58.5342V58.0488ZM85.499 62H83.5576V51.5H85.499V62ZM89.9834 62.1367C88.9899 62.1367 88.2152 61.8405 87.6592 61.248C87.1032 60.6556 86.8252 59.8079 86.8252 58.7051V58.1172C86.8252 56.9505 87.0804 56.0505 87.5908 55.417C88.1012 54.7835 88.8327 54.4668 89.7852 54.4668C90.7148 54.4668 91.4144 54.7653 91.8838 55.3623C92.3532 55.9548 92.5924 56.8343 92.6016 58.001V58.9512H88.7529C88.7803 59.498 88.901 59.8991 89.1152 60.1543C89.3294 60.4049 89.6598 60.5303 90.1064 60.5303C90.7536 60.5303 91.2936 60.3092 91.7266 59.8672L92.4854 61.0361C92.2484 61.3643 91.9043 61.6309 91.4531 61.8359C91.002 62.0365 90.512 62.1367 89.9834 62.1367ZM88.7666 57.5977H90.7012V57.4199C90.6921 56.9779 90.6191 56.6429 90.4824 56.415C90.3457 56.1872 90.1087 56.0732 89.7715 56.0732C89.4342 56.0732 89.1882 56.194 89.0332 56.4355C88.8828 56.6771 88.7939 57.0645 88.7666 57.5977Z" fill="#274456"/>
</svg>
