<svg id="Layer_1" data-name="Layer 1" xmlns="http://www.w3.org/2000/svg" viewBox="0 0 48 48"><defs><style>.cls-1{fill:#7b9fbf;}.cls-1,.cls-2{stroke:#7b9fbf;stroke-miterlimit:10;stroke-width:1.15px;}.cls-2{fill:none;}</style></defs><path class="cls-1" d="M32.36,12.93a.63.63,0,1,1-.65.63.64.64,0,0,1,.65-.63Z"/><polygon class="cls-2" points="36.38 18.29 11.62 18.29 11.62 13.75 36.38 9.35 36.38 18.29"/><path class="cls-1" d="M32.36,23.11a.63.63,0,1,1-.65.63.64.64,0,0,1,.65-.63Z"/><rect class="cls-2" x="11.62" y="20.41" width="24.75" height="8.06"/><path class="cls-1" d="M32.36,33.29a.63.63,0,1,1-.65.62.64.64,0,0,1,.65-.62Z"/><rect class="cls-2" x="11.62" y="30.59" width="24.75" height="8.06"/></svg>