<svg width="86" height="65" viewBox="0 0 86 65" fill="none" xmlns="http://www.w3.org/2000/svg">
<path d="M31.1096 26.57C31.5764 26.57 32.0241 26.3846 32.3541 26.0545C32.6842 25.7244 32.8696 25.2768 32.8696 24.81C32.8749 24.5751 32.8334 24.3414 32.7475 24.1227C32.6615 23.904 32.5329 23.7045 32.369 23.536C32.2052 23.3676 32.0095 23.2334 31.7932 23.1414C31.577 23.0493 31.3446 23.0013 31.1096 23V23C30.6419 23.0026 30.1943 23.1903 29.8645 23.5219C29.5347 23.8536 29.3496 24.3023 29.3496 24.77V24.77C29.3496 25.2368 29.535 25.6844 29.8651 26.0145C30.1952 26.3446 30.6428 26.53 31.1096 26.53V26.57Z" stroke="#274456" stroke-miterlimit="10"/>
<path d="M37.3198 26.57C37.7866 26.57 38.2342 26.3846 38.5643 26.0545C38.8944 25.7244 39.0798 25.2768 39.0798 24.81C39.0798 24.3432 38.8944 23.8955 38.5643 23.5655C38.2342 23.2354 37.7866 23.05 37.3198 23.05C36.8521 23.05 36.4034 23.2351 36.0717 23.5649C35.7401 23.8946 35.5524 24.3423 35.5498 24.81V24.81C35.5524 25.2777 35.7401 25.7253 36.0717 26.0551C36.4034 26.3849 36.8521 26.57 37.3198 26.57V26.57Z" stroke="#274456" stroke-miterlimit="10"/>
<path d="M43.5298 26.57C43.7609 26.57 43.9898 26.5245 44.2033 26.436C44.4168 26.3476 44.6108 26.2179 44.7743 26.0545C44.9377 25.8911 45.0673 25.6971 45.1558 25.4835C45.2442 25.27 45.2898 25.0411 45.2898 24.81C45.2951 24.5751 45.2536 24.3414 45.1676 24.1227C45.0817 23.904 44.953 23.7045 44.7892 23.536C44.6254 23.3676 44.4296 23.2334 44.2134 23.1414C43.9972 23.0493 43.7648 23.0013 43.5298 23C43.0611 23.0026 42.6125 23.19 42.2811 23.5213C41.9497 23.8527 41.7624 24.3014 41.7598 24.77C41.7624 25.2377 41.9501 25.6853 42.2817 26.0151C42.6134 26.3449 43.0621 26.53 43.5298 26.53V26.57Z" fill="#274456" stroke="#274456" stroke-miterlimit="10"/>
<path d="M31.1096 20.11C31.5773 20.1074 32.0249 19.9197 32.3547 19.5881C32.6845 19.2564 32.8696 18.8077 32.8696 18.34V18.34C32.8696 17.8732 32.6842 17.4256 32.3541 17.0955C32.0241 16.7654 31.5764 16.58 31.1096 16.58V16.58C30.6428 16.58 30.1952 16.7654 29.8651 17.0955C29.535 17.4256 29.3496 17.8732 29.3496 18.34C29.3496 18.8077 29.5347 19.2564 29.8645 19.5881C30.1943 19.9197 30.6419 20.1074 31.1096 20.11V20.11Z" stroke="#274456" stroke-miterlimit="10"/>
<path d="M37.3198 20.11C37.7875 20.1074 38.2351 19.9197 38.5649 19.5881C38.8947 19.2564 39.0798 18.8077 39.0798 18.34V18.34C39.0798 17.8732 38.8944 17.4256 38.5643 17.0955C38.2342 16.7654 37.7866 16.58 37.3198 16.58C36.8521 16.58 36.4034 16.7651 36.0717 17.0949C35.7401 17.4247 35.5524 17.8723 35.5498 18.34V18.34C35.5524 18.8086 35.7398 19.2573 36.0711 19.5887C36.4025 19.9201 36.8512 20.1074 37.3198 20.11V20.11Z" stroke="#274456" stroke-miterlimit="10"/>
<path d="M43.5298 20.11C43.9975 20.1074 44.4451 19.9197 44.7749 19.5881C45.1047 19.2564 45.2898 18.8077 45.2898 18.34V18.34C45.2898 18.1089 45.2442 17.88 45.1558 17.6665C45.0673 17.453 44.9377 17.2589 44.7743 17.0955C44.6108 16.9321 44.4168 16.8024 44.2033 16.714C43.9898 16.6255 43.7609 16.58 43.5298 16.58C43.0621 16.58 42.6134 16.7651 42.2817 17.0949C41.9501 17.4247 41.7624 17.8723 41.7598 18.34V18.34C41.7624 18.8086 41.9497 19.2573 42.2811 19.5887C42.6125 19.9201 43.0611 20.1074 43.5298 20.11V20.11Z" stroke="#274456" stroke-miterlimit="10"/>
<path d="M37.3198 13.64C37.7875 13.6373 38.2351 13.4497 38.5649 13.118C38.8947 12.7864 39.0798 12.3377 39.0798 11.87C39.0798 11.4032 38.8944 10.9555 38.5643 10.6255C38.2342 10.2954 37.7866 10.11 37.3198 10.11C36.8521 10.11 36.4034 10.2951 36.0717 10.6249C35.7401 10.9546 35.5524 11.4023 35.5498 11.87C35.5524 12.3386 35.7398 12.7873 36.0711 13.1187C36.4025 13.45 36.8512 13.6374 37.3198 13.64Z" fill="#274456" stroke="#274456" stroke-miterlimit="10"/>
<path d="M43.5298 13.64C43.9975 13.6373 44.4451 13.4497 44.7749 13.118C45.1047 12.7864 45.2898 12.3377 45.2898 11.87V11.87C45.2898 11.6389 45.2442 11.41 45.1558 11.1965C45.0673 10.9829 44.9377 10.7889 44.7743 10.6255C44.6108 10.462 44.4168 10.3324 44.2033 10.244C43.9898 10.1555 43.7609 10.11 43.5298 10.11C43.0621 10.11 42.6134 10.2951 42.2817 10.6249C41.9501 10.9546 41.7624 11.4023 41.7598 11.87V11.87C41.7624 12.3386 41.9497 12.7873 42.2811 13.1187C42.6125 13.45 43.0611 13.6374 43.5298 13.64V13.64Z" stroke="#274456" stroke-miterlimit="10"/>
<path d="M31.1096 13.64C31.5773 13.6373 32.0249 13.4497 32.3547 13.118C32.6845 12.7864 32.8696 12.3377 32.8696 11.87V11.87C32.8696 11.4032 32.6842 10.9555 32.3541 10.6255C32.0241 10.2954 31.5764 10.11 31.1096 10.11C30.6428 10.11 30.1952 10.2954 29.8651 10.6255C29.535 10.9555 29.3496 11.4032 29.3496 11.87V11.87C29.3496 12.3377 29.5347 12.7864 29.8645 13.118C30.1943 13.4497 30.6419 13.6373 31.1096 13.64V13.64Z" stroke="#274456" stroke-miterlimit="10"/>
<path d="M49.76 26.57C50.2268 26.57 50.6744 26.3846 51.0045 26.0545C51.3346 25.7244 51.52 25.2768 51.52 24.81V24.81C51.52 24.3432 51.3346 23.8955 51.0045 23.5655C50.6744 23.2354 50.2268 23.05 49.76 23.05C49.294 23.0526 48.8479 23.2389 48.5184 23.5684C48.1889 23.8979 48.0026 24.344 48 24.81V24.81C48.0026 25.2777 48.1903 25.7253 48.5219 26.0551C48.8536 26.3849 49.3023 26.57 49.77 26.57H49.76Z" stroke="#274456" stroke-miterlimit="10"/>
<path d="M55.9997 26.57C56.2317 26.5713 56.4616 26.5268 56.6763 26.4389C56.891 26.3511 57.0862 26.2216 57.2507 26.0581C57.4152 25.8945 57.5457 25.7 57.6348 25.4858C57.7239 25.2717 57.7697 25.042 57.7697 24.81C57.775 24.5742 57.7332 24.3397 57.6466 24.1204C57.5601 23.901 57.4305 23.7011 57.2656 23.5325C57.1008 23.3639 56.9038 23.2299 56.6864 23.1385C56.469 23.047 56.2356 22.9999 55.9997 23C55.532 23.0026 55.0844 23.1903 54.7546 23.5219C54.4248 23.8536 54.2397 24.3023 54.2397 24.77V24.77C54.2344 25.0045 54.276 25.2376 54.362 25.4558C54.4481 25.674 54.5769 25.8728 54.7408 26.0404C54.9048 26.2081 55.1006 26.3414 55.3168 26.4323C55.533 26.5232 55.7652 26.5701 55.9997 26.57V26.57Z" stroke="#274456" stroke-miterlimit="10"/>
<path d="M49.76 20.11C50.2277 20.1074 50.6753 19.9197 51.0051 19.5881C51.3349 19.2564 51.52 18.8077 51.52 18.34V18.34C51.52 17.8732 51.3346 17.4256 51.0045 17.0955C50.6744 16.7654 50.2268 16.58 49.76 16.58C49.294 16.5826 48.8479 16.7689 48.5184 17.0984C48.1889 17.4279 48.0026 17.874 48 18.34V18.34C48.0026 18.8086 48.19 19.2573 48.5213 19.5887C48.8527 19.9201 49.3014 20.1074 49.77 20.11H49.76Z" stroke="#274456" stroke-miterlimit="10"/>
<path d="M56.0002 20.11C56.2327 20.11 56.4628 20.0642 56.6776 19.9753C56.8923 19.8863 57.0875 19.7559 57.2518 19.5916C57.4162 19.4272 57.5465 19.2321 57.6355 19.0173C57.7244 18.8026 57.7702 18.5724 57.7702 18.34C57.7702 18.108 57.7244 17.8783 57.6353 17.6641C57.5462 17.45 57.4157 17.2555 57.2512 17.0919C57.0867 16.9284 56.8915 16.7989 56.6768 16.7111C56.4621 16.6232 56.2322 16.5787 56.0002 16.58C55.5335 16.58 55.0858 16.7654 54.7557 17.0955C54.4257 17.4255 54.2402 17.8732 54.2402 18.34C54.2402 18.8077 54.4253 19.2564 54.7551 19.588C55.0849 19.9197 55.5325 20.1073 56.0002 20.11Z" fill="#274456" stroke="#274456" stroke-miterlimit="10"/>
<path d="M49.76 13.64C50.2277 13.6373 50.6753 13.4497 51.0051 13.118C51.3349 12.7864 51.52 12.3377 51.52 11.87V11.87C51.52 11.4032 51.3346 10.9555 51.0045 10.6255C50.6744 10.2954 50.2268 10.11 49.76 10.11C49.294 10.1126 48.8479 10.2989 48.5184 10.6284C48.1889 10.9579 48.0026 11.404 48 11.87V11.87C48.0026 12.3386 48.19 12.7873 48.5213 13.1187C48.8527 13.45 49.3014 13.6374 49.77 13.64H49.76Z" stroke="#274456" stroke-miterlimit="10"/>
<path d="M56.0002 13.64C56.2327 13.64 56.4628 13.5942 56.6776 13.5053C56.8923 13.4163 57.0875 13.286 57.2518 13.1216C57.4162 12.9572 57.5465 12.7621 57.6355 12.5474C57.7244 12.3326 57.7702 12.1025 57.7702 11.87V11.87C57.7702 11.638 57.7244 11.4084 57.6353 11.1942C57.5462 10.98 57.4157 10.7855 57.2512 10.622C57.0867 10.4584 56.8915 10.329 56.6768 10.2411C56.4621 10.1532 56.2322 10.1087 56.0002 10.11V10.11C55.5335 10.11 55.0858 10.2954 54.7557 10.6255C54.4257 10.9556 54.2402 11.4032 54.2402 11.87V11.87C54.2402 12.3377 54.4253 12.7864 54.7551 13.1181C55.0849 13.4497 55.5325 13.6374 56.0002 13.64V13.64Z" stroke="#274456" stroke-miterlimit="10"/>
<path d="M56.0002 39.17C55.5335 39.17 55.0858 38.9846 54.7557 38.6545C54.4257 38.3245 54.2402 37.8768 54.2402 37.41C54.2402 36.9423 54.4253 36.4936 54.7551 36.162C55.0849 35.8303 55.5325 35.6427 56.0002 35.64C56.4689 35.6426 56.9175 35.83 57.2489 36.1613C57.5803 36.4927 57.7676 36.9414 57.7702 37.41C57.7676 37.8777 57.5799 38.3254 57.2483 38.6551C56.9166 38.9849 56.4679 39.17 56.0002 39.17V39.17Z" stroke="#274456" stroke-miterlimit="10"/>
<path d="M49.76 39.17C49.294 39.1674 48.8479 38.9811 48.5184 38.6516C48.1889 38.3221 48.0026 37.876 48 37.41C48.0026 36.9414 48.19 36.4927 48.5213 36.1613C48.8527 35.83 49.3014 35.6426 49.77 35.64C50.2377 35.6427 50.6853 35.8303 51.0151 36.162C51.3449 36.4936 51.53 36.9423 51.53 37.41C51.53 37.8768 51.3446 38.3245 51.0145 38.6545C50.6844 38.9846 50.2368 39.17 49.77 39.17H49.76Z" fill="#274456" stroke="#274456" stroke-miterlimit="10"/>
<path d="M43.5503 39.17C43.0826 39.17 42.6339 38.9849 42.3022 38.6551C41.9706 38.3254 41.7829 37.8777 41.7803 37.41C41.7829 36.9414 41.9702 36.4927 42.3016 36.1613C42.633 35.83 43.0816 35.6426 43.5503 35.64V35.64C44.018 35.6427 44.4656 35.8303 44.7954 36.162C45.1252 36.4936 45.3103 36.9423 45.3103 37.41V37.41C45.3103 37.8768 45.1248 38.3245 44.7948 38.6545C44.4647 38.9846 44.0171 39.17 43.5503 39.17V39.17Z" stroke="#274456" stroke-miterlimit="10"/>
<path d="M55.9997 33C55.7618 33.0055 55.5253 32.9627 55.3044 32.8742C55.0836 32.7856 54.883 32.6533 54.7147 32.485C54.5465 32.3168 54.4141 32.1161 54.3256 31.8953C54.237 31.6744 54.1942 31.4379 54.1997 31.2V31.2C54.1996 30.9655 54.2464 30.7333 54.3374 30.5171C54.4283 30.301 54.5615 30.1051 54.7292 29.9412C54.8969 29.7772 55.0957 29.6484 55.3139 29.5623C55.532 29.4763 55.7652 29.4347 55.9997 29.44C56.4674 29.44 56.9161 29.6251 57.2477 29.9549C57.5794 30.2847 57.767 30.7323 57.7697 31.2V31.2C57.7737 31.435 57.7308 31.6684 57.6437 31.8866C57.5565 32.1048 57.4267 32.3035 57.262 32.471C57.0972 32.6386 56.9008 32.7717 56.684 32.8625C56.4673 32.9533 56.2347 33.0001 55.9997 33Z" stroke="#274456" stroke-miterlimit="10"/>
<path d="M49.7603 33C49.5261 32.9987 49.2946 32.951 49.079 32.8596C48.8634 32.7682 48.6681 32.6349 48.5044 32.4675C48.3407 32.3001 48.2119 32.1018 48.1253 31.8843C48.0388 31.6667 47.9963 31.4341 48.0003 31.2V31.2C48.0029 30.7323 48.1905 30.2847 48.5222 29.9549C48.8539 29.6251 49.3025 29.44 49.7703 29.44V29.44C50.0014 29.44 50.2302 29.4855 50.4438 29.574C50.6573 29.6624 50.8513 29.7921 51.0148 29.9555C51.1782 30.1189 51.3078 30.3129 51.3963 30.5265C51.4847 30.74 51.5303 30.9689 51.5303 31.2V31.2C51.5356 31.4353 51.4937 31.6693 51.407 31.8881C51.3204 32.107 51.1907 32.3062 51.0256 32.474C50.8606 32.6419 50.6636 32.7749 50.4462 32.8652C50.2289 32.9556 49.9956 33.0014 49.7603 33Z" stroke="#274456" stroke-miterlimit="10"/>
<path d="M43.5503 33C43.0826 33 42.6339 32.8149 42.3022 32.4851C41.9706 32.1553 41.7829 31.7077 41.7803 31.24V31.24C41.7829 30.7723 41.9706 30.3246 42.3022 29.9949C42.6339 29.6651 43.0826 29.48 43.5503 29.48V29.48C44.0171 29.48 44.4647 29.6654 44.7948 29.9955C45.1248 30.3255 45.3103 30.7732 45.3103 31.24V31.24C45.3103 31.7068 45.1248 32.1544 44.7948 32.4845C44.4647 32.8146 44.0171 33 43.5503 33V33Z" stroke="#274456" stroke-miterlimit="10"/>
<path d="M37.3198 39.17C36.8521 39.17 36.4034 38.9849 36.0717 38.6551C35.7401 38.3254 35.5524 37.8777 35.5498 37.41V37.41C35.5524 36.9414 35.7398 36.4927 36.0711 36.1613C36.4025 35.83 36.8512 35.6426 37.3198 35.64V35.64C37.7875 35.6427 38.2351 35.8303 38.5649 36.162C38.8947 36.4936 39.0798 36.9423 39.0798 37.41V37.41C39.0798 37.8768 38.8944 38.3245 38.5643 38.6545C38.2342 38.9846 37.7866 39.17 37.3198 39.17V39.17Z" stroke="#274456" stroke-miterlimit="10"/>
<path d="M31.1098 39.17C30.6421 39.17 30.1934 38.9849 29.8618 38.6551C29.5301 38.3254 29.3425 37.8777 29.3398 37.41V37.41C29.3425 36.9414 29.5298 36.4927 29.8612 36.1613C30.1925 35.83 30.6412 35.6426 31.1098 35.64V35.64C31.5775 35.6427 32.0252 35.8303 32.355 36.162C32.6847 36.4936 32.8699 36.9423 32.8698 37.41C32.8698 37.8768 32.6844 38.3245 32.3544 38.6545C32.0243 38.9846 31.5766 39.17 31.1098 39.17V39.17Z" stroke="#274456" stroke-miterlimit="10"/>
<path d="M37.3198 33C36.8521 33 36.4034 32.8149 36.0717 32.4851C35.7401 32.1553 35.5524 31.7077 35.5498 31.24V31.24C35.5524 30.7723 35.7401 30.3246 36.0717 29.9949C36.4034 29.6651 36.8521 29.48 37.3198 29.48C37.7866 29.48 38.2342 29.6654 38.5643 29.9955C38.8944 30.3255 39.0798 30.7732 39.0798 31.24V31.24C39.0798 31.7068 38.8944 32.1544 38.5643 32.4845C38.2342 32.8146 37.7866 33 37.3198 33V33Z" stroke="#274456" stroke-miterlimit="10"/>
<path d="M31.1098 33C30.6421 33 30.1934 32.8149 29.8618 32.4851C29.5301 32.1553 29.3425 31.7077 29.3398 31.24C29.3425 30.7723 29.5301 30.3246 29.8618 29.9949C30.1934 29.6651 30.6421 29.48 31.1098 29.48C31.5766 29.48 32.0243 29.6654 32.3544 29.9955C32.6844 30.3255 32.8698 30.7732 32.8698 31.24C32.8698 31.7068 32.6844 32.1544 32.3544 32.4845C32.0243 32.8146 31.5766 33 31.1098 33Z" fill="#274456" stroke="#274456" stroke-miterlimit="10"/>
<path d="M0.952148 62V52.0469H3.58398C4.74609 52.0469 5.67122 52.416 6.35938 53.1543C7.05208 53.8926 7.40527 54.9043 7.41895 56.1895V57.8027C7.41895 59.1107 7.07259 60.1383 6.37988 60.8857C5.69173 61.6286 4.74154 62 3.5293 62H0.952148ZM2.96191 53.7217V60.332H3.56348C4.2334 60.332 4.70508 60.1566 4.97852 59.8057C5.25195 59.4502 5.39551 58.8395 5.40918 57.9736V56.2441C5.40918 55.3145 5.2793 54.6673 5.01953 54.3027C4.75977 53.9336 4.31771 53.7399 3.69336 53.7217H2.96191ZM12.2861 62C12.2314 61.8861 12.1768 61.6947 12.1221 61.4258C11.7757 61.8997 11.3063 62.1367 10.7139 62.1367C10.0941 62.1367 9.5791 61.9316 9.16895 61.5215C8.76335 61.1113 8.56055 60.5804 8.56055 59.9287C8.56055 59.154 8.80664 58.5547 9.29883 58.1309C9.79557 57.707 10.5088 57.4906 11.4385 57.4814H12.0264V56.8867C12.0264 56.554 11.9694 56.3193 11.8555 56.1826C11.7415 56.0459 11.5752 55.9775 11.3564 55.9775C10.8734 55.9775 10.6318 56.2601 10.6318 56.8252H8.69727C8.69727 56.1416 8.95247 55.5788 9.46289 55.1367C9.97786 54.6901 10.6273 54.4668 11.4111 54.4668C12.2223 54.4668 12.849 54.6787 13.291 55.1025C13.7376 55.5218 13.9609 56.1234 13.9609 56.9072V60.3867C13.9701 61.0247 14.0612 61.5238 14.2344 61.8838V62H12.2861ZM11.1445 60.6191C11.3587 60.6191 11.541 60.5758 11.6914 60.4893C11.8418 60.4027 11.9535 60.3001 12.0264 60.1816V58.6436H11.5615C11.2334 58.6436 10.9736 58.7484 10.7822 58.958C10.5954 59.1676 10.502 59.4479 10.502 59.7988C10.502 60.3457 10.7161 60.6191 11.1445 60.6191ZM17.6113 52.7852V54.6035H18.6025V56.0596H17.6113V59.7305C17.6113 60.0221 17.6501 60.2227 17.7275 60.332C17.8096 60.4414 17.9645 60.4961 18.1924 60.4961C18.3792 60.4961 18.5319 60.4801 18.6504 60.4482L18.6367 61.9521C18.3086 62.0752 17.9531 62.1367 17.5703 62.1367C16.3216 62.1367 15.6904 61.4212 15.6768 59.9902V56.0596H14.8223V54.6035H15.6768V52.7852H17.6113ZM23.1826 62C23.1279 61.8861 23.0732 61.6947 23.0186 61.4258C22.6722 61.8997 22.2028 62.1367 21.6104 62.1367C20.9906 62.1367 20.4756 61.9316 20.0654 61.5215C19.6598 61.1113 19.457 60.5804 19.457 59.9287C19.457 59.154 19.7031 58.5547 20.1953 58.1309C20.6921 57.707 21.4053 57.4906 22.335 57.4814H22.9229V56.8867C22.9229 56.554 22.8659 56.3193 22.752 56.1826C22.638 56.0459 22.4717 55.9775 22.2529 55.9775C21.7699 55.9775 21.5283 56.2601 21.5283 56.8252H19.5938C19.5938 56.1416 19.849 55.5788 20.3594 55.1367C20.8743 54.6901 21.5238 54.4668 22.3076 54.4668C23.1188 54.4668 23.7454 54.6787 24.1875 55.1025C24.6341 55.5218 24.8574 56.1234 24.8574 56.9072V60.3867C24.8665 61.0247 24.9577 61.5238 25.1309 61.8838V62H23.1826ZM22.041 60.6191C22.2552 60.6191 22.4375 60.5758 22.5879 60.4893C22.7383 60.4027 22.8499 60.3001 22.9229 60.1816V58.6436H22.458C22.1299 58.6436 21.8701 58.7484 21.6787 58.958C21.4919 59.1676 21.3984 59.4479 21.3984 59.7988C21.3984 60.3457 21.6126 60.6191 22.041 60.6191ZM29.5811 62V52.0469H32.2129C33.375 52.0469 34.3001 52.416 34.9883 53.1543C35.681 53.8926 36.0342 54.9043 36.0479 56.1895V57.8027C36.0479 59.1107 35.7015 60.1383 35.0088 60.8857C34.3206 61.6286 33.3704 62 32.1582 62H29.5811ZM31.5908 53.7217V60.332H32.1924C32.8623 60.332 33.334 60.1566 33.6074 59.8057C33.8809 59.4502 34.0244 58.8395 34.0381 57.9736V56.2441C34.0381 55.3145 33.9082 54.6673 33.6484 54.3027C33.3887 53.9336 32.9466 53.7399 32.3223 53.7217H31.5908ZM39.4316 62H37.4902V54.6035H39.4316V62ZM37.4014 52.6895C37.4014 52.3887 37.4971 52.1426 37.6885 51.9512C37.8799 51.7598 38.1351 51.6641 38.4541 51.6641C38.7731 51.6641 39.0283 51.7598 39.2197 51.9512C39.4111 52.1426 39.5068 52.3887 39.5068 52.6895C39.5068 52.9857 39.4111 53.2318 39.2197 53.4277C39.0329 53.6237 38.7777 53.7217 38.4541 53.7217C38.1305 53.7217 37.873 53.6237 37.6816 53.4277C37.4948 53.2318 37.4014 52.9857 37.4014 52.6895ZM43.6016 60.5303C44.1621 60.5303 44.4469 60.1657 44.4561 59.4365H46.2744C46.2653 60.2432 46.0169 60.8949 45.5293 61.3916C45.0417 61.8883 44.4128 62.1367 43.6426 62.1367C42.6901 62.1367 41.9632 61.8405 41.4619 61.248C40.9606 60.6556 40.7054 59.7829 40.6963 58.6299V58.042C40.6963 56.8799 40.9424 55.9935 41.4346 55.3828C41.9313 54.7721 42.6628 54.4668 43.6289 54.4668C44.4447 54.4668 45.0872 54.7197 45.5566 55.2256C46.026 55.7269 46.2653 56.4401 46.2744 57.3652H44.4561C44.4515 56.9505 44.3831 56.6315 44.251 56.4082C44.1188 56.1849 43.9001 56.0732 43.5947 56.0732C43.2575 56.0732 43.016 56.194 42.8701 56.4355C42.7243 56.6725 42.6468 57.1351 42.6377 57.8232V58.5752C42.6377 59.1768 42.6673 59.5983 42.7266 59.8398C42.7858 60.0768 42.8838 60.2523 43.0205 60.3662C43.1572 60.4756 43.3509 60.5303 43.6016 60.5303ZM49.6172 52.7852V54.6035H50.6084V56.0596H49.6172V59.7305C49.6172 60.0221 49.6559 60.2227 49.7334 60.332C49.8154 60.4414 49.9704 60.4961 50.1982 60.4961C50.3851 60.4961 50.5378 60.4801 50.6562 60.4482L50.6426 61.9521C50.3145 62.0752 49.959 62.1367 49.5762 62.1367C48.3275 62.1367 47.6963 61.4212 47.6826 59.9902V56.0596H46.8281V54.6035H47.6826V52.7852H49.6172ZM53.7051 62H51.7637V54.6035H53.7051V62ZM51.6748 52.6895C51.6748 52.3887 51.7705 52.1426 51.9619 51.9512C52.1533 51.7598 52.4085 51.6641 52.7275 51.6641C53.0465 51.6641 53.3018 51.7598 53.4932 51.9512C53.6846 52.1426 53.7803 52.3887 53.7803 52.6895C53.7803 52.9857 53.6846 53.2318 53.4932 53.4277C53.3063 53.6237 53.0511 53.7217 52.7275 53.7217C52.404 53.7217 52.1465 53.6237 51.9551 53.4277C51.7682 53.2318 51.6748 52.9857 51.6748 52.6895ZM54.9766 58.0625C54.9766 56.9414 55.2409 56.0618 55.7695 55.4238C56.2982 54.7858 57.0296 54.4668 57.9639 54.4668C58.9072 54.4668 59.6432 54.7858 60.1719 55.4238C60.7005 56.0618 60.9648 56.946 60.9648 58.0762V58.5479C60.9648 59.6735 60.7028 60.5531 60.1787 61.1865C59.6546 61.82 58.9209 62.1367 57.9775 62.1367C57.0296 62.1367 56.2913 61.82 55.7627 61.1865C55.2386 60.5485 54.9766 59.6644 54.9766 58.5342V58.0625ZM56.918 58.5479C56.918 59.8695 57.2712 60.5303 57.9775 60.5303C58.6292 60.5303 58.9801 59.9788 59.0303 58.876L59.0371 58.0625C59.0371 57.388 58.9437 56.889 58.7568 56.5654C58.57 56.2373 58.3057 56.0732 57.9639 56.0732C57.6357 56.0732 57.3783 56.2373 57.1914 56.5654C57.0091 56.889 56.918 57.388 56.918 58.0625V58.5479ZM63.9453 54.6035L64 55.335C64.4375 54.7562 65.0094 54.4668 65.7158 54.4668C66.9873 54.4668 67.6413 55.3577 67.6777 57.1396V62H65.7363V57.2832C65.7363 56.8639 65.6725 56.5609 65.5449 56.374C65.4219 56.1826 65.2031 56.0869 64.8887 56.0869C64.5378 56.0869 64.2643 56.2669 64.0684 56.627V62H62.127V54.6035H63.9453ZM72.5791 62C72.5244 61.8861 72.4697 61.6947 72.415 61.4258C72.0687 61.8997 71.5993 62.1367 71.0068 62.1367C70.387 62.1367 69.8721 61.9316 69.4619 61.5215C69.0563 61.1113 68.8535 60.5804 68.8535 59.9287C68.8535 59.154 69.0996 58.5547 69.5918 58.1309C70.0885 57.707 70.8018 57.4906 71.7314 57.4814H72.3193V56.8867C72.3193 56.554 72.2624 56.3193 72.1484 56.1826C72.0345 56.0459 71.8682 55.9775 71.6494 55.9775C71.1663 55.9775 70.9248 56.2601 70.9248 56.8252H68.9902C68.9902 56.1416 69.2454 55.5788 69.7559 55.1367C70.2708 54.6901 70.9202 54.4668 71.7041 54.4668C72.5153 54.4668 73.1419 54.6787 73.584 55.1025C74.0306 55.5218 74.2539 56.1234 74.2539 56.9072V60.3867C74.263 61.0247 74.3542 61.5238 74.5273 61.8838V62H72.5791ZM71.4375 60.6191C71.6517 60.6191 71.834 60.5758 71.9844 60.4893C72.1348 60.4027 72.2464 60.3001 72.3193 60.1816V58.6436H71.8545C71.5264 58.6436 71.2666 58.7484 71.0752 58.958C70.8883 59.1676 70.7949 59.4479 70.7949 59.7988C70.7949 60.3457 71.0091 60.6191 71.4375 60.6191ZM79.3057 56.4697L78.6631 56.415C78.1344 56.415 77.7767 56.6475 77.5898 57.1123V62H75.6484V54.6035H77.4736L77.5283 55.4033C77.8337 54.779 78.2552 54.4668 78.793 54.4668C79.0117 54.4668 79.1895 54.4964 79.3262 54.5557L79.3057 56.4697ZM82.6758 58.7803L83.6602 54.6035H85.7246L83.291 63.1074C82.9264 64.3607 82.2406 64.9873 81.2334 64.9873C81.001 64.9873 80.7367 64.944 80.4404 64.8574V63.3467L80.666 63.3535C80.9668 63.3535 81.1924 63.2943 81.3428 63.1758C81.4977 63.0618 81.6139 62.8613 81.6914 62.5742L81.8418 62.0752L79.709 54.6035H81.7871L82.6758 58.7803Z" fill="#274456"/>
</svg>
