<svg xmlns="http://www.w3.org/2000/svg" viewBox="0 0 65.61 48"><defs><style>.cls-1,.cls-2,.cls-3{fill:none;stroke-miterlimit:10;}.cls-1{stroke:#7b9fbf;}.cls-2,.cls-3{stroke:#b3b6ba;}.cls-2{stroke-dasharray:1 1;}</style></defs><g id="Layer_1" data-name="Layer 1"><polyline class="cls-1" points="9.12 34.51 7.35 34.51 7.35 18.34 12.32 12.93 24.44 9.94 24.44 12.15"/><polyline class="cls-1" points="7.52 18.43 10.67 18.43 12.49 16.45 12.49 13.02"/><polyline class="cls-1" points="27.98 32.85 27.98 38.06 10.9 38.06 10.9 21.89 15.86 16.48 27.98 13.49 27.98 32.85"/><polyline class="cls-1" points="10.9 21.89 15.86 21.89 15.86 16.48"/><polyline class="cls-1" points="10.9 36.28 9.12 36.28 9.12 20.12 14.09 14.71 26.21 11.71 26.21 13.93"/><polyline class="cls-1" points="9.29 20.21 12.44 20.21 14.26 18.23 14.26 14.79"/><line class="cls-1" x1="14.26" y1="24.46" x2="24.95" y2="24.46"/><line class="cls-1" x1="14.26" y1="26.71" x2="24.95" y2="26.71"/><line class="cls-1" x1="14.26" y1="28.95" x2="24.95" y2="28.95"/><line class="cls-1" x1="14.26" y1="31.2" x2="24.95" y2="31.2"/><line class="cls-1" x1="14.26" y1="33.45" x2="19.61" y2="33.45"/><line class="cls-2" x1="30.16" y1="26.71" x2="37.19" y2="26.71"/><g id="Data"><ellipse class="cls-3" cx="48.55" cy="15.88" rx="9.7" ry="1.73"/><path class="cls-3" d="M38.85,17.61v4.54a29.58,29.58,0,0,0,19.41,0V17.61A30.08,30.08,0,0,1,38.85,17.61Z"/><path class="cls-3" d="M38.85,24v4.54a29.58,29.58,0,0,0,19.41,0V24A30.08,30.08,0,0,1,38.85,24Z"/><path class="cls-3" d="M38.85,30v4.54a29.66,29.66,0,0,0,19.41,0V30A30.08,30.08,0,0,1,38.85,30Z"/></g></g></svg>