<svg width="75" height="71" viewBox="0 0 75 71" fill="none" xmlns="http://www.w3.org/2000/svg">
<path d="M59.7538 44.4466C66.0753 44.4466 71.1999 41.4285 71.1999 37.7055C71.1999 33.9825 66.0753 30.9644 59.7538 30.9644C53.4322 30.9644 48.3076 33.9825 48.3076 37.7055C48.3076 41.4285 53.4322 44.4466 59.7538 44.4466Z" stroke="#7B9FBF" stroke-width="2" stroke-miterlimit="10"/>
<path d="M21.9081 67.8532C28.2296 67.8532 33.3542 64.8351 33.3542 61.1121C33.3542 57.3891 28.2296 54.371 21.9081 54.371C15.5865 54.371 10.4619 57.3891 10.4619 61.1121C10.4619 64.8351 15.5865 67.8532 21.9081 67.8532Z" stroke="#7B9FBF" stroke-width="2" stroke-miterlimit="10"/>
<path d="M25.2314 27.7811L49.7853 34.335" stroke="#7B9FBF" stroke-width="2" stroke-miterlimit="10"/>
<path d="M51.4457 42.7614L30.0303 56.0563" stroke="#7B9FBF" stroke-width="2" stroke-miterlimit="10"/>
<path d="M21.9077 18.793C24.8615 19.9165 26.8923 21.9763 26.8923 24.2233C26.8923 27.9683 21.7231 30.9644 15.4462 30.9644C9.16923 30.9644 4 27.9683 4 24.2233C4 21.9763 5.84615 20.1037 8.8 18.793L9.53846 18.4185" stroke="#7B9FBF" stroke-width="2" stroke-miterlimit="10"/>
<path d="M11.7537 25.1595H11.1998C9.9075 25.1595 8.7998 24.2233 8.7998 22.9125V17.8567C8.98442 15.4224 13.2306 14.2989 15.2613 14.2989C17.2921 14.2989 21.5383 15.4224 21.5383 17.8567V22.9125C21.5383 24.2233 20.6152 25.1595 19.1383 25.1595H18.769H11.7537Z" stroke="#7B9FBF" stroke-width="2" stroke-miterlimit="10"/>
<path d="M15.2616 12.0519C17.1077 12.0519 18.5846 10.5538 18.5846 8.68132V7.37055C18.5846 5.49802 17.1077 4 15.2616 4C13.4154 4 11.9385 5.49802 11.9385 7.37055V8.49407C11.9385 10.5538 13.4154 12.0519 15.2616 12.0519Z" stroke="#7B9FBF" stroke-width="2" stroke-miterlimit="10"/>
</svg>
