<svg id="Layer_1" data-name="Layer 1" xmlns="http://www.w3.org/2000/svg" viewBox="0 0 48 48"><defs><style>.cls-1{fill:none;stroke:#7b9fbf;stroke-miterlimit:10;stroke-width:1.15px;}</style></defs><g id="Building_Permit"><line class="cls-1" x1="28.89" y1="24.77" x2="35.88" y2="24.77"/><line class="cls-1" x1="28.89" y1="29.41" x2="35.88" y2="29.41"/><line class="cls-1" x1="28.89" y1="34.04" x2="35.88" y2="34.04"/><polyline class="cls-1" points="24 27.09 17.6 20.69 11.2 27.09"/><polygon class="cls-1" points="12.37 25.92 12.37 34.07 15.86 34.07 15.86 28.83 19.35 28.83 19.35 34.07 22.84 34.07 22.84 25.92 17.6 20.69 12.37 25.92"/><path class="cls-1" d="M7.93,16.34V38.47H40.07V9.53l-7,1.67a2.25,2.25,0,1,1-4.4.93l-10.5,2.22a2.25,2.25,0,1,1-4.4.92Z"/><line class="cls-1" x1="28.89" y1="20.13" x2="35.88" y2="20.13"/></g></svg>