<svg id="Layer_1" data-name="Layer 1" xmlns="http://www.w3.org/2000/svg" viewBox="0 0 48 48"><defs><style>.cls-1{fill:none;stroke:#7b9fbf;stroke-miterlimit:10;}</style></defs><g id="Team"><path class="cls-1" d="M24.11,20c-2.62,0-7.68,1.43-7.68,4.19v8.43a2.64,2.64,0,0,0,2.79,2.74h.7v2.79h8.37V35.38H29a2.64,2.64,0,0,0,2.79-2.74V24.21C31.78,21.45,26.72,20,24.11,20Z"/><path class="cls-1" d="M24.11,17.92a3.51,3.51,0,0,0,3.49-3.56V13.17a3.49,3.49,0,1,0-7,0v1.19A3.51,3.51,0,0,0,24.11,17.92Z"/><path class="cls-1" d="M15.12,17.86a3.51,3.51,0,0,1-3.49-3.56V13.11a3.49,3.49,0,1,1,7,0V14.3A3.51,3.51,0,0,1,15.12,17.86Z"/><path class="cls-1" d="M19.31,20.83A13,13,0,0,0,15.12,20c-2.62,0-7.68,1.43-7.68,4.19v8.43a2.68,2.68,0,0,0,2.79,2.79h.7V27"/><polyline class="cls-1" points="37.07 27 37.07 38.17 10.93 38.17 10.93 36.68"/><path class="cls-1" d="M32.88,17.86a3.51,3.51,0,0,0,3.49-3.56V13.11a3.49,3.49,0,1,0-7,0V14.3A3.51,3.51,0,0,0,32.88,17.86Z"/><path class="cls-1" d="M28.7,20.83A12.85,12.85,0,0,1,32.88,20c2.62,0,7.68,1.43,7.68,4.19v8.43a2.68,2.68,0,0,1-2.79,2.79h-.62"/></g></svg>