<svg id="Layer_1" data-name="Layer 1" xmlns="http://www.w3.org/2000/svg" viewBox="0 0 48 48"><defs><style>.cls-1{fill:none;stroke:#7b9fbf;stroke-miterlimit:10;}</style></defs><polygon class="cls-1" points="35.05 25.85 35.05 39.75 12.95 39.75 12.95 18.84 19.37 11.84 35.05 7.97 35.05 21.18 35.05 25.85"/><polyline class="cls-1" points="12.95 18.84 19.37 18.84 19.37 11.84"/><line class="cls-1" x1="15.72" y1="31.76" x2="31.63" y2="31.76"/><line class="cls-1" x1="15.72" y1="35.64" x2="31.63" y2="35.64"/><line class="cls-1" x1="15.72" y1="27.87" x2="31.63" y2="27.87"/><path class="cls-1" d="M26.91,24h-.28a1,1,0,0,1-1.11-1.09v-3c0-1.1,2-1.67,3.06-1.67s3.05.57,3.05,1.67v3A1,1,0,0,1,30.52,24H26.91Z"/><path class="cls-1" d="M28.58,16.79a1.61,1.61,0,0,0,1.59-1.62v-.54a1.6,1.6,0,1,0-3.19,0v.54A1.61,1.61,0,0,0,28.58,16.79Z"/></svg>