<svg xmlns="http://www.w3.org/2000/svg" viewBox="0 0 498.9 184.3"><defs><style>.cls-1{fill:#274456;}</style></defs><g id="Layer_2" data-name="Layer 2"><g id="Layer_1-2" data-name="Layer 1"><path class="cls-1" d="M24.23,184.3,9.85,148V184.3H0V124.36H9.33L28.85,171l19.61-46.67H57.8V184.3H48V147.91c-4.8,11.81-9.85,24.83-14.47,36.39Z"/><path class="cls-1" d="M106.16,124.36h9.25L138.1,184.3H127.57L121.15,168H100.43C98.37,173.77,96,178.65,94,184.3H83.47Zm-2.39,34.25h14c-2.57-7.28-4.2-11.56-7-19.52Z"/><path class="cls-1" d="M184.84,159H173.63V184.3h-9.85V124.36h25.35c10.1,0,18.23,7.28,18.23,17.38,0,7.88-5.05,13.79-12.07,16.27l13.1,26.29H197.77Zm-11.21-25.26v15.84h15.5c4.88,0,8.81-3,8.81-7.88s-3.93-8-8.81-8Z"/><path class="cls-1" d="M248.45,161.78l-2.39,2.74V184.3h-9.85V124.36h9.85V150c8.13-9,14.72-16.69,22.77-25.6h13.62l-27.23,30,27.23,30H268.83Z"/><path class="cls-1" d="M307.7,184.3V124.36h45.81v9.42h-36v15.84h29.54V159H317.55v15.84h36v9.42Z"/><path class="cls-1" d="M402,159H390.75V184.3H380.9V124.36h25.34c10.11,0,18.24,7.28,18.24,17.38,0,7.88-5.05,13.79-12.07,16.27l13.1,26.29H414.89Zm-11.21-25.26v15.84h15.49c4.89,0,8.82-3,8.82-7.88s-3.93-8-8.82-8Z"/><path class="cls-1" d="M474.39,159H463.18V184.3h-9.85V124.36h25.34c10.11,0,18.24,7.28,18.24,17.38,0,7.88-5.05,13.79-12.07,16.27l13.1,26.29H487.32Zm-11.21-25.26v15.84h15.49c4.89,0,8.82-3,8.82-7.88s-3.93-8-8.82-8Z"/><path class="cls-1" d="M498.9,98.65H274.49V11L247.38,28.41V46.56l9.67,2.8V98.65H241.38V51.07L221,45.16V98.65H.07v-6H215V37.17l26.41,7.65V25.13L280.49,0V92.65H498.9Zm-251.52-6h3.67V53.87l-3.67-1.06Z"/></g></g></svg>