<svg xmlns="http://www.w3.org/2000/svg" viewBox="0 0 48 48"><defs><style>.cls-1,.cls-2{fill:none;stroke-miterlimit:10;}.cls-1{stroke:#b3b6ba;}.cls-2{stroke:#7ba0c0;}</style></defs><g id="Layer_1" data-name="Layer 1"><polygon class="cls-1" points="26.01 41.36 30.82 41.36 30.82 23.7 26.01 25.31 26.01 41.36"/><polygon class="cls-1" points="17.18 41.36 21.99 41.36 21.99 30.93 17.18 32.53 17.18 41.36"/><polygon class="cls-1" points="8.35 41.36 13.17 41.36 13.17 34.94 8.35 36.54 8.35 41.36"/><polygon class="cls-1" points="34.83 41.36 39.65 41.36 39.65 10.06 34.83 11.66 34.83 41.36"/><line class="cls-1" x1="42.86" y1="41.36" x2="5.14" y2="41.36"/><polygon class="cls-2" points="12.21 27.42 17.52 27.42 17.52 14.6 9.56 14.6 9.56 27.42 12.21 27.42"/><line class="cls-2" x1="6.91" y1="23" x2="7.79" y2="23"/><rect class="cls-2" x="10.45" y="12.39" width="6.19" height="2.21"/><rect class="cls-2" x="12.22" y="10.18" width="2.65" height="2.21"/><line class="cls-2" x1="11.33" y1="16.81" x2="15.75" y2="16.81"/><line class="cls-2" x1="11.33" y1="19.46" x2="15.75" y2="19.46"/><line class="cls-2" x1="11.33" y1="22.12" x2="15.75" y2="22.12"/><line class="cls-2" x1="11.33" y1="24.77" x2="15.75" y2="24.77"/><line class="cls-2" x1="6.91" y1="17.7" x2="7.79" y2="17.7"/><line class="cls-2" x1="6.91" y1="15.93" x2="7.79" y2="15.93"/><line class="cls-2" x1="6.91" y1="19.46" x2="7.79" y2="19.46"/><line class="cls-2" x1="6.91" y1="21.23" x2="7.79" y2="21.23"/><line class="cls-2" x1="6.91" y1="24.77" x2="7.79" y2="24.77"/><polyline class="cls-2" points="17.52 27.42 21.94 27.42 21.94 15.48 17.52 15.48"/><line class="cls-2" x1="19.73" y1="19.46" x2="19.73" y2="20.79"/><line class="cls-2" x1="19.73" y1="17.25" x2="19.73" y2="18.58"/><line class="cls-2" x1="19.73" y1="21.68" x2="19.73" y2="23"/><line class="cls-2" x1="19.73" y1="24.33" x2="19.73" y2="25.65"/><line class="cls-2" x1="13.54" y1="10.18" x2="13.54" y2="6.64"/><polyline class="cls-2" points="16.64 13.28 21.06 13.28 21.06 15.48"/><polyline class="cls-2" points="10.45 12.39 10.45 8.41 10 7.97 5.14 12.83 5.14 27.42 9.12 27.42"/></g></svg>