<svg width="80" height="65" viewBox="0 0 80 65" fill="none" xmlns="http://www.w3.org/2000/svg">
<path d="M52.0502 25.85V39.75H29.9502V18.84L36.3702 11.84L52.0502 7.96997V21.18V25.85Z" stroke="#274456" stroke-miterlimit="10"/>
<path d="M29.9502 18.84H36.3702V11.84" stroke="#274456" stroke-miterlimit="10"/>
<path d="M49.6799 15.76H39.3799V24.64H49.6799V15.76Z" stroke="#274456" stroke-miterlimit="10"/>
<path d="M32.7197 27.88H50.1897" stroke="#274456" stroke-miterlimit="10"/>
<path d="M32.7197 30.46H50.1897" stroke="#274456" stroke-miterlimit="10"/>
<path d="M32.7197 33.05H40.4797" stroke="#274456" stroke-miterlimit="10"/>
<path d="M32.7197 35.64H40.4797" stroke="#274456" stroke-miterlimit="10"/>
<path d="M42.4199 33.05H50.1899" stroke="#274456" stroke-miterlimit="10"/>
<path d="M42.4199 35.64H50.1899" stroke="#274456" stroke-miterlimit="10"/>
<path d="M3.1543 58.5V62H1.14453V52.0469H4.53516C5.51953 52.0469 6.30339 52.3522 6.88672 52.9629C7.47461 53.5736 7.76855 54.3665 7.76855 55.3418C7.76855 56.3171 7.47917 57.0872 6.90039 57.6523C6.32161 58.2174 5.51953 58.5 4.49414 58.5H3.1543ZM3.1543 56.8252H4.53516C4.91797 56.8252 5.21419 56.6999 5.42383 56.4492C5.63346 56.1986 5.73828 55.834 5.73828 55.3555C5.73828 54.8587 5.63118 54.4645 5.41699 54.1729C5.2028 53.8766 4.91569 53.7262 4.55566 53.7217H3.1543V56.8252ZM12.6699 56.4697L12.0273 56.415C11.4987 56.415 11.141 56.6475 10.9541 57.1123V62H9.0127V54.6035H10.8379L10.8926 55.4033C11.1979 54.779 11.6195 54.4668 12.1572 54.4668C12.376 54.4668 12.5537 54.4964 12.6904 54.5557L12.6699 56.4697ZM13.1963 58.0625C13.1963 56.9414 13.4606 56.0618 13.9893 55.4238C14.5179 54.7858 15.2493 54.4668 16.1836 54.4668C17.127 54.4668 17.863 54.7858 18.3916 55.4238C18.9202 56.0618 19.1846 56.946 19.1846 58.0762V58.5479C19.1846 59.6735 18.9225 60.5531 18.3984 61.1865C17.8743 61.82 17.1406 62.1367 16.1973 62.1367C15.2493 62.1367 14.5111 61.82 13.9824 61.1865C13.4583 60.5485 13.1963 59.6644 13.1963 58.5342V58.0625ZM15.1377 58.5479C15.1377 59.8695 15.4909 60.5303 16.1973 60.5303C16.849 60.5303 17.1999 59.9788 17.25 58.876L17.2568 58.0625C17.2568 57.388 17.1634 56.889 16.9766 56.5654C16.7897 56.2373 16.5254 56.0732 16.1836 56.0732C15.8555 56.0732 15.598 56.2373 15.4111 56.5654C15.2288 56.889 15.1377 57.388 15.1377 58.0625V58.5479ZM20.1348 58.0762C20.1348 56.8639 20.3398 55.9593 20.75 55.3623C21.1602 54.7653 21.7572 54.4668 22.541 54.4668C23.1107 54.4668 23.5846 54.7129 23.9629 55.2051V51.5H25.9111V62H24.1543L24.0654 61.248C23.6689 61.8405 23.1585 62.1367 22.5342 62.1367C21.7594 62.1367 21.167 61.8405 20.7568 61.248C20.3512 60.6556 20.1439 59.7852 20.1348 58.6367V58.0762ZM22.0762 58.5615C22.0762 59.2907 22.1536 59.8011 22.3086 60.0928C22.4635 60.3799 22.7256 60.5234 23.0947 60.5234C23.4775 60.5234 23.7669 60.3525 23.9629 60.0107V56.6338C23.7715 56.2692 23.4844 56.0869 23.1016 56.0869C22.7461 56.0869 22.4863 56.2305 22.3223 56.5176C22.1582 56.8047 22.0762 57.3151 22.0762 58.0488V58.5615ZM30.9766 61.3232C30.5755 61.8656 30.0378 62.1367 29.3633 62.1367C28.6842 62.1367 28.1693 61.9043 27.8184 61.4395C27.4674 60.9701 27.292 60.2887 27.292 59.3955V54.6035H29.2266V59.4434C29.2357 60.1634 29.4749 60.5234 29.9443 60.5234C30.3864 60.5234 30.7054 60.332 30.9014 59.9492V54.6035H32.8496V62H31.0312L30.9766 61.3232ZM36.9033 60.5303C37.4639 60.5303 37.7487 60.1657 37.7578 59.4365H39.5762C39.5671 60.2432 39.3187 60.8949 38.8311 61.3916C38.3434 61.8883 37.7145 62.1367 36.9443 62.1367C35.9919 62.1367 35.265 61.8405 34.7637 61.248C34.2624 60.6556 34.0072 59.7829 33.998 58.6299V58.042C33.998 56.8799 34.2441 55.9935 34.7363 55.3828C35.2331 54.7721 35.9645 54.4668 36.9307 54.4668C37.7464 54.4668 38.389 54.7197 38.8584 55.2256C39.3278 55.7269 39.5671 56.4401 39.5762 57.3652H37.7578C37.7533 56.9505 37.6849 56.6315 37.5527 56.4082C37.4206 56.1849 37.2018 56.0732 36.8965 56.0732C36.5592 56.0732 36.3177 56.194 36.1719 56.4355C36.026 56.6725 35.9486 57.1351 35.9395 57.8232V58.5752C35.9395 59.1768 35.9691 59.5983 36.0283 59.8398C36.0876 60.0768 36.1855 60.2523 36.3223 60.3662C36.459 60.4756 36.6527 60.5303 36.9033 60.5303ZM42.9189 52.7852V54.6035H43.9102V56.0596H42.9189V59.7305C42.9189 60.0221 42.9577 60.2227 43.0352 60.332C43.1172 60.4414 43.2721 60.4961 43.5 60.4961C43.6868 60.4961 43.8395 60.4801 43.958 60.4482L43.9443 61.9521C43.6162 62.0752 43.2607 62.1367 42.8779 62.1367C41.6292 62.1367 40.998 61.4212 40.9844 59.9902V56.0596H40.1299V54.6035H40.9844V52.7852H42.9189ZM52.5029 59.3887C52.5029 58.9831 52.3981 58.6777 52.1885 58.4727C51.9834 58.263 51.6074 58.0465 51.0605 57.8232C50.0625 57.445 49.3447 57.0029 48.9072 56.4971C48.4697 55.9867 48.251 55.3851 48.251 54.6924C48.251 53.8538 48.5472 53.1816 49.1396 52.6758C49.7367 52.1654 50.4932 51.9102 51.4092 51.9102C52.0199 51.9102 52.5645 52.04 53.043 52.2998C53.5215 52.555 53.8883 52.9173 54.1436 53.3867C54.4033 53.8561 54.5332 54.3893 54.5332 54.9863H52.5303C52.5303 54.5215 52.43 54.1683 52.2295 53.9268C52.0335 53.6807 51.7487 53.5576 51.375 53.5576C51.0241 53.5576 50.7507 53.6624 50.5547 53.8721C50.3587 54.0771 50.2607 54.3551 50.2607 54.7061C50.2607 54.9795 50.3701 55.2279 50.5889 55.4512C50.8076 55.6699 51.195 55.8978 51.751 56.1348C52.7217 56.4857 53.4258 56.9163 53.8633 57.4268C54.3053 57.9372 54.5264 58.5866 54.5264 59.375C54.5264 60.2409 54.2507 60.9176 53.6992 61.4053C53.1478 61.8929 52.3981 62.1367 51.4502 62.1367C50.8076 62.1367 50.222 62.0046 49.6934 61.7402C49.1647 61.4759 48.75 61.0977 48.4492 60.6055C48.153 60.1133 48.0049 59.5322 48.0049 58.8623H50.0215C50.0215 59.4365 50.1331 59.8535 50.3564 60.1133C50.5798 60.373 50.9443 60.5029 51.4502 60.5029C52.152 60.5029 52.5029 60.1315 52.5029 59.3887ZM57.6504 55.2529C58.0697 54.7288 58.5846 54.4668 59.1953 54.4668C59.8698 54.4668 60.3825 54.7038 60.7334 55.1777C61.0843 55.6517 61.262 56.3581 61.2666 57.2969V62H59.3252V57.3174C59.3252 56.8844 59.2568 56.5723 59.1201 56.3809C58.988 56.1849 58.7715 56.0869 58.4707 56.0869C58.1198 56.0869 57.8464 56.2487 57.6504 56.5723V62H55.7158V51.5H57.6504V55.2529ZM65.6416 62.1367C64.6481 62.1367 63.8734 61.8405 63.3174 61.248C62.7614 60.6556 62.4834 59.8079 62.4834 58.7051V58.1172C62.4834 56.9505 62.7386 56.0505 63.249 55.417C63.7594 54.7835 64.4909 54.4668 65.4434 54.4668C66.373 54.4668 67.0726 54.7653 67.542 55.3623C68.0114 55.9548 68.2507 56.8343 68.2598 58.001V58.9512H64.4111C64.4385 59.498 64.5592 59.8991 64.7734 60.1543C64.9876 60.4049 65.318 60.5303 65.7646 60.5303C66.4118 60.5303 66.9518 60.3092 67.3848 59.8672L68.1436 61.0361C67.9066 61.3643 67.5625 61.6309 67.1113 61.8359C66.6602 62.0365 66.1702 62.1367 65.6416 62.1367ZM64.4248 57.5977H66.3594V57.4199C66.3503 56.9779 66.2773 56.6429 66.1406 56.415C66.0039 56.1872 65.7669 56.0732 65.4297 56.0732C65.0924 56.0732 64.8464 56.194 64.6914 56.4355C64.541 56.6771 64.4521 57.0645 64.4248 57.5977ZM72.3408 62.1367C71.3473 62.1367 70.5726 61.8405 70.0166 61.248C69.4606 60.6556 69.1826 59.8079 69.1826 58.7051V58.1172C69.1826 56.9505 69.4378 56.0505 69.9482 55.417C70.4587 54.7835 71.1901 54.4668 72.1426 54.4668C73.0723 54.4668 73.7718 54.7653 74.2412 55.3623C74.7106 55.9548 74.9499 56.8343 74.959 58.001V58.9512H71.1104C71.1377 59.498 71.2585 59.8991 71.4727 60.1543C71.6868 60.4049 72.0173 60.5303 72.4639 60.5303C73.111 60.5303 73.651 60.3092 74.084 59.8672L74.8428 61.0361C74.6058 61.3643 74.2617 61.6309 73.8105 61.8359C73.3594 62.0365 72.8695 62.1367 72.3408 62.1367ZM71.124 57.5977H73.0586V57.4199C73.0495 56.9779 72.9766 56.6429 72.8398 56.415C72.7031 56.1872 72.4661 56.0732 72.1289 56.0732C71.7917 56.0732 71.5456 56.194 71.3906 56.4355C71.2402 56.6771 71.1514 57.0645 71.124 57.5977ZM78.3018 52.7852V54.6035H79.293V56.0596H78.3018V59.7305C78.3018 60.0221 78.3405 60.2227 78.418 60.332C78.5 60.4414 78.6549 60.4961 78.8828 60.4961C79.0697 60.4961 79.2223 60.4801 79.3408 60.4482L79.3271 61.9521C78.999 62.0752 78.6436 62.1367 78.2607 62.1367C77.012 62.1367 76.3809 61.4212 76.3672 59.9902V56.0596H75.5127V54.6035H76.3672V52.7852H78.3018Z" fill="#274456"/>
</svg>
