<svg id="Layer_1" data-name="Layer 1" xmlns="http://www.w3.org/2000/svg" viewBox="0 0 48 48"><defs><style>.cls-1{fill:none;stroke:#7b9fbf;stroke-miterlimit:10;}</style></defs><polygon class="cls-1" points="36.99 38.77 19.37 38.77 19.37 11.75 36.99 8.95 36.99 38.77"/><polygon class="cls-1" points="19.37 38.77 9.97 38.77 9.97 18.8 19.37 16 19.37 38.77"/><rect class="cls-1" x="13.5" y="22.32" width="5.87" height="3.52"/><rect class="cls-1" x="13.5" y="29.37" width="5.87" height="3.52"/><path class="cls-1" d="M27.24,32.89h1.87a2,2,0,0,1,2,2v3.87a0,0,0,0,1,0,0H25.24a0,0,0,0,1,0,0V34.89A2,2,0,0,1,27.24,32.89Z"/><line class="cls-1" x1="22.43" y1="15.28" x2="24.53" y2="15.28"/><line class="cls-1" x1="27.13" y1="15.28" x2="29.23" y2="15.28"/><line class="cls-1" x1="31.82" y1="15.28" x2="33.93" y2="15.28"/><line class="cls-1" x1="22.43" y1="18.8" x2="24.53" y2="18.8"/><line class="cls-1" x1="27.13" y1="18.8" x2="29.23" y2="18.8"/><line class="cls-1" x1="31.82" y1="18.8" x2="33.93" y2="18.8"/><line class="cls-1" x1="22.43" y1="22.32" x2="24.53" y2="22.32"/><line class="cls-1" x1="27.13" y1="22.32" x2="29.23" y2="22.32"/><line class="cls-1" x1="31.82" y1="22.32" x2="33.93" y2="22.32"/><line class="cls-1" x1="22.43" y1="25.85" x2="24.53" y2="25.85"/><line class="cls-1" x1="27.13" y1="25.85" x2="29.23" y2="25.85"/><line class="cls-1" x1="31.82" y1="25.85" x2="33.93" y2="25.85"/><line class="cls-1" x1="22.43" y1="29.37" x2="24.53" y2="29.37"/><line class="cls-1" x1="27.13" y1="29.37" x2="29.23" y2="29.37"/><line class="cls-1" x1="31.82" y1="29.37" x2="33.93" y2="29.37"/></svg>