<svg id="Layer_1" data-name="Layer 1" xmlns="http://www.w3.org/2000/svg" viewBox="0 0 48 48"><defs><style>.cls-1{fill:none;stroke:#7b9fbf;stroke-miterlimit:10;}.cls-2{fill:#7b9fbf;}</style></defs><polygon class="cls-1" points="8.74 11.98 39.26 9.2 39.26 28.08 8.74 28.08 8.74 11.98"/><polygon class="cls-1" points="25.31 10.47 22.47 10.67 22.47 8.46 25.31 7.53 25.31 10.47"/><rect class="cls-1" x="22.47" y="28.08" width="2.84" height="12.39"/><path class="cls-2" d="M15.21,20.76H13.87v3.1h-1V16.2H15a2.32,2.32,0,0,1,1.71.59,2.37,2.37,0,0,1,.58,1.72A2.35,2.35,0,0,1,17,19.74a2,2,0,0,1-.88.8l1.48,3.25v.07h-1Zm-1.34-.82H15a1.25,1.25,0,0,0,1-.39,1.49,1.49,0,0,0,.36-1.05c0-1-.45-1.47-1.34-1.47H13.87Z"/><path class="cls-2" d="M22.28,20.32h-2.7V23h3.15v.83H18.61V16.2h4.07V17h-3.1v2.46h2.7Z"/><path class="cls-2" d="M29,23.86H28L24.93,18v5.9H24V16.2h1L28,22.13V16.2h1Z"/><path class="cls-2" d="M35.1,17h-2v6.83h-1V17h-2V16.2h5Z"/></svg>