<svg id="Layer_1" data-name="Layer 1" xmlns="http://www.w3.org/2000/svg" viewBox="0 0 48 48"><defs><style>.cls-1{fill:none;stroke:#7b9fbf;stroke-miterlimit:10;}</style></defs><polyline class="cls-1" points="28.5 23.47 28.5 14.26 9.7 17.36 9.7 39.64 24.33 39.64"/><polygon class="cls-1" points="39.65 39.64 39.65 21.22 24.33 24.32 24.33 39.64 39.65 39.64"/><path class="cls-1" d="M35.47,27.8v2.61a3.49,3.49,0,1,1-7,0V27.8"/><line class="cls-1" x1="29.9" y1="27.8" x2="27.11" y2="27.8"/><line class="cls-1" x1="36.86" y1="27.8" x2="34.08" y2="27.8"/><path class="cls-1" d="M23.63,19.8v-5a4.69,4.69,0,0,0-4.52-4.69,4.69,4.69,0,0,0-4.53,4.69v5"/><line class="cls-1" x1="15.97" y1="19.8" x2="13.18" y2="19.8"/><line class="cls-1" x1="25.02" y1="19.8" x2="22.24" y2="19.8"/></svg>