<svg id="Layer_1" data-name="Layer 1" xmlns="http://www.w3.org/2000/svg" viewBox="0 0 48 48"><defs><style>.cls-1{fill:none;stroke:#7b9fbf;stroke-miterlimit:10;}</style></defs><path class="cls-1" d="M44,29.08c0-.84.34-4-1.74-4.5-.18-.34-1-2-1.62-3.46a3.75,3.75,0,0,0-3.41-2.2H31.61V32.71h2.21a2.91,2.91,0,0,1,5.81,0h4s1-.69,1-1.45S44.85,29.32,44,29.08Zm-5.57-3.63H34.51V21.82h2.71a.54.54,0,0,1,.48.31l1.18,2.53A.55.55,0,0,1,38.38,25.45Z"/><polygon class="cls-1" points="7.67 12.39 31.61 9.39 31.61 32.71 22.18 32.71 22.18 18.82 7.67 21.05 7.67 12.39"/><path class="cls-1" d="M39.63,32.71a2.91,2.91,0,1,1-2.9-2.9A2.9,2.9,0,0,1,39.63,32.71Z"/><polygon class="cls-1" points="3.31 21.82 3.31 35.61 22.18 35.61 22.18 18.82 3.31 21.82"/><rect class="cls-1" x="9.84" y="22.48" width="5.81" height="2.97"/><line class="cls-1" x1="5.49" y1="32.71" x2="6.94" y2="32.71"/><line class="cls-1" x1="8.39" y1="32.71" x2="9.84" y2="32.71"/><line class="cls-1" x1="11.29" y1="32.71" x2="12.75" y2="32.71"/></svg>