<svg xmlns="http://www.w3.org/2000/svg" viewBox="0 0 741.53 300"><defs><style>.cls-1{fill:#deedf4;}.cls-2{fill:#274456;}</style></defs><g id="Layer_2" data-name="Layer 2"><g id="Layer_1-2" data-name="Layer 1"><rect class="cls-1" width="741.53" height="300"/><path class="cls-2" d="M192.91,198.88l-14.38-36.31v36.31h-9.85V138.94H178l19.52,46.66,19.61-46.66h9.33v59.94h-9.85V162.49c-4.79,11.81-9.85,24.83-14.47,36.39Z"/><path class="cls-2" d="M274.85,138.94h9.24l22.69,59.94H296.25l-6.42-16.27H269.11c-2.06,5.73-4.45,10.61-6.42,16.27H252.15Zm-2.4,34.25h14c-2.57-7.28-4.2-11.56-7-19.52Z"/><path class="cls-2" d="M353.53,173.62H342.31v25.26h-9.85V138.94h25.35c10.1,0,18.23,7.28,18.23,17.38,0,7.88-5.05,13.79-12.07,16.27l13.1,26.29H366.45Zm-11.22-25.26V164.2h15.5c4.88,0,8.82-3,8.82-7.88s-3.94-8-8.82-8Z"/><path class="cls-2" d="M417.14,176.36l-2.4,2.74v19.78h-9.85V138.94h9.85v25.6c8.13-9,14.73-16.7,22.77-25.6h13.62l-27.23,30,27.23,30H437.51Z"/><path class="cls-2" d="M476.38,198.88V138.94h45.81v9.42h-36V164.2h29.54v9.42H486.23v15.84h36v9.42Z"/><path class="cls-2" d="M570.64,173.62H559.43v25.26h-9.85V138.94h25.35c10.1,0,18.23,7.28,18.23,17.38,0,7.88-5,13.79-12.07,16.27l13.1,26.29H583.57Zm-11.21-25.26V164.2h15.5c4.88,0,8.82-3,8.82-7.88s-3.94-8-8.82-8Z"/><path class="cls-2" d="M643.08,173.62H631.86v25.26H622V138.94h25.35c10.1,0,18.23,7.28,18.23,17.38,0,7.88-5.05,13.79-12.07,16.27l13.1,26.29H656Zm-11.22-25.26V164.2h15.5c4.88,0,8.82-3,8.82-7.88s-3.94-8-8.82-8Z"/><path class="cls-2" d="M74.91,199.3V137.85l26.4,7.65V125.81l39.12-25.14v98.66h-6V111.66l-27.12,17.42v18.15L117,150v49.29H101.31V151.74l-20.4-5.91v53.5Zm32.4-6H111V154.54l-3.68-1.06Z"/></g></g></svg>