<svg xmlns="http://www.w3.org/2000/svg" viewBox="0 0 591.72 98.65"><defs><style>.cls-1{fill:#274456;}</style></defs><g id="Layer_2" data-name="Layer 2"><g id="Layer_1-2" data-name="Layer 1"><path class="cls-1" d="M118,98.2,103.62,61.9V98.2H93.78V38.26h9.33l19.52,46.67,19.61-46.67h9.33V98.2h-9.84V61.81c-4.8,11.82-9.85,24.83-14.48,36.39Z"/><path class="cls-1" d="M199.94,38.26h9.25L231.88,98.2H221.35l-6.43-16.27H194.2c-2,5.74-4.45,10.62-6.42,16.27H177.25Zm-2.4,34.25h14C209,65.24,207.39,61,204.56,53Z"/><path class="cls-1" d="M278.62,72.94H267.4V98.2h-9.84V38.26H282.9c10.1,0,18.24,7.28,18.24,17.39,0,7.87-5.05,13.78-12.07,16.26l13.1,26.29H291.55ZM267.4,47.68V63.52h15.5c4.88,0,8.82-3,8.82-7.87s-3.94-8-8.82-8Z"/><path class="cls-1" d="M342.23,75.68l-2.4,2.74V98.2H330V38.26h9.84V63.87c8.14-9,14.73-16.7,22.78-25.61h13.61L349,68.23l27.23,30H362.61Z"/><path class="cls-1" d="M401.47,98.2V38.26h45.81v9.42h-36V63.52h29.54v9.42H411.32V88.78h36V98.2Z"/><path class="cls-1" d="M495.74,72.94H484.52V98.2h-9.84V38.26H500c10.1,0,18.24,7.28,18.24,17.39,0,7.87-5,13.78-12.08,16.26L519.29,98.2H508.67ZM484.52,47.68V63.52H500c4.88,0,8.82-3,8.82-7.87s-3.94-8-8.82-8Z"/><path class="cls-1" d="M568.17,72.94H557V98.2h-9.84V38.26h25.34c10.1,0,18.24,7.28,18.24,17.39,0,7.87-5.05,13.78-12.08,16.26L591.72,98.2H581.1ZM557,47.68V63.52h15.5c4.88,0,8.82-3,8.82-7.87s-3.94-8-8.82-8Z"/><path class="cls-1" d="M0,98.62V37.17l26.41,7.65V25.13L65.52,0V98.65h-6V11L32.41,28.41V46.56l9.67,2.8V98.65H26.41V51.07L6,45.16V98.65Zm32.41-6h3.67V53.87l-3.67-1.06Z"/></g></g></svg>